<svg width="640" height="440" viewBox="0 0 640 440" fill="none" xmlns="http://www.w3.org/2000/svg">
  <defs>
    <linearGradient id="bgE" x1="48" y1="26" x2="594" y2="398" gradientUnits="userSpaceOnUse">
      <stop stop-color="#172941" />
      <stop offset="1" stop-color="#0E1726" />
    </linearGradient>
    <linearGradient id="lineE" x1="188" y1="78" x2="444" y2="356" gradientUnits="userSpaceOnUse">
      <stop stop-color="#22D3EE" />
      <stop offset="1" stop-color="#22C55E" />
    </linearGradient>
  </defs>
  <rect width="640" height="440" rx="32" fill="url(#bgE)" />
  <circle cx="320" cy="210" r="126" stroke="url(#lineE)" stroke-width="10" />
  <circle cx="320" cy="210" r="92" stroke="#8ED8FB" stroke-opacity="0.68" stroke-width="8" />
  <path d="M320 134L341 176L388 182L354 214L362 260L320 238L278 260L286 214L252 182L299 176L320 134Z" fill="#1EC7E8" fill-opacity="0.9" stroke="#9BE8FF" stroke-width="6" stroke-linejoin="round" />
  <path d="M212 312L252 344L292 306" stroke="#22C55E" stroke-width="10" stroke-linecap="round" stroke-linejoin="round" />
  <path d="M428 312L388 344L348 306" stroke="#22C55E" stroke-width="10" stroke-linecap="round" stroke-linejoin="round" />
  <circle cx="130" cy="118" r="34" fill="#123253" stroke="#8ED8FB" stroke-opacity="0.7" stroke-width="6" />
  <path d="M114 118H146" stroke="#8ED8FB" stroke-width="6" stroke-linecap="round" />
  <circle cx="512" cy="330" r="40" fill="#123253" stroke="#8ED8FB" stroke-opacity="0.7" stroke-width="6" />
  <path d="M495 330L510 344L530 318" stroke="#22C55E" stroke-width="7" stroke-linecap="round" stroke-linejoin="round" />
</svg>
