<svg xmlns="http://www.w3.org/2000/svg" width="192" height="128" viewBox="0 0 192 128" role="img" aria-label="Keyboard issue icon">
  <defs>
    <linearGradient id="bg" x1="0" y1="0" x2="1" y2="1">
      <stop offset="0%" stop-color="#0b1e33"/>
      <stop offset="100%" stop-color="#153959"/>
    </linearGradient>
    <linearGradient id="accent" x1="0" y1="0" x2="1" y2="1">
      <stop offset="0%" stop-color="#7dd3fc"/>
      <stop offset="100%" stop-color="#22c55e"/>
    </linearGradient>
  </defs>
  <rect width="192" height="128" rx="12" fill="url(#bg)"/>
  <rect x="8" y="8" width="176" height="112" rx="10" fill="none" stroke="#2a82c4" stroke-width="2" opacity="0.85"/>
  <g fill="none" stroke-linecap="round" stroke-linejoin="round" transform="translate(96 64) scale(2) translate(-96 -64)">

    <rect x="48" y="42" width="96" height="44" rx="8" stroke="url(#accent)" stroke-width="4"/>
    <path d="M56 52 H136 M56 62 H136 M56 72 H136" stroke="#93c5fd" stroke-width="2"/>
    <path d="M66 52 V76 M78 52 V76 M90 52 V76 M102 52 V76 M114 52 V76 M126 52 V76" stroke="#93c5fd" stroke-width="2"/>
    <path d="M132 36 L146 22" stroke="#ef4444" stroke-width="4"/>
    <path d="M139 22 V36" stroke="#ef4444" stroke-width="4"/>
    </g>
</svg>
